<svg xmlns="http://www.w3.org/2000/svg" version="1.1" xmlns:xlink="http://www.w3.org/1999/xlink" xmlns:svgjs="http://svgjs.dev/svgjs" width="1000" height="1000" viewBox="0 0 1000 1000"><rect width="1000" height="1000" fill="#552b2b"></rect><g transform="matrix(0.7,0,0,0.7,150.4792391771765,195.0475818529249)"><svg viewBox="0 0 283 247" data-background-color="#552b2b" preserveAspectRatio="xMidYMid meet" height="872" width="1000" xmlns="http://www.w3.org/2000/svg" xmlns:xlink="http://www.w3.org/1999/xlink"><g id="tight-bounds" transform="matrix(1,0,0,1,-0.19338935583394345,-0.09997365579206985)"><svg viewBox="0 0 283.3871389088925 247.2" height="247.2" width="283.3871389088925"><g><svg viewBox="0 0 283.3871389088925 247.2" height="247.2" width="283.3871389088925"><g><svg viewBox="0 0 283.3871389088925 247.2" height="247.2" width="283.3871389088925"><g id="textblocktransform"><svg viewBox="0 0 283.3871389088925 247.2" height="247.2" width="283.3871389088925" id="textblock"><g><svg viewBox="0 0 283.3871389088925 247.2" height="247.2" width="283.3871389088925"><path d="M282.724 53.02C281.391 27.36 277.594 20.227 277.594 20.227 265.937-6.202 251.389-0.506 238.319 3.292 215.245 3.446 192.263 9.091 169.241 12.119 120.92 12.581 72.186 4.986 24.105 23.717 19.588 29.464-4.686 24.846 0.803 56.304 2.242 69.39 7.491 83.913 7.331 95.922 8.051 98.026 9.05 93.202 9.476 96.23 10.969 104.39 13.407 100.541 15.405 105.365 12.621 118.246 14.619 128.971 16.524 140.21 13.167 143.135 8.864 141.749 6.932 151.449 6.732 158.479 5.653 157.145 4.467 156.837 3.601 156.632 1.856 157.402 2.149 159.608 3.148 167.152-1.142 171.514 1.549 178.904-0.302 186.91 2.828 193.838 2.402 202.511 2.349 204.255 2.642 205.744 3.108 206.154 5.173 208.361 2.162 212.672 2.482 217.342 23.665 249.262 46.647 227.195 68.349 241.872 73.985 231.608 69.748 245.516 72 243.36 73.758 240.846 75.037 251.263 77.022 245.362 77.329 243.668 76.862 239.665 77.955 240.435 78.528 240.846 79.034 240.743 79.114 238.382 79.234 234.841 78.181 237.048 77.901 235.201 80.926 225.861 80.18 248.081 83.017 247.158 82.884 244.438 82.058 240.538 83.75 241.051 85.429 237.151 85.482 233.918 86.974 242.693 87.027 244.592 87.294 245.926 87.72 246.85 92.383 237.305 97.019 250.237 101.909 245.926 104.906 241.205 107.784 248.492 110.822 246.696 111.887 245.259 112.967 242.693 113.992 247.004 126.556 247.928 139.945 244.079 151.855 247.158 183.683 241.41 217.696 249.518 251.256 241.923 259.169 238.998 267.389 234.841 275.103 231.506 275.103 231.506 281.351 222.371 281.351 181.316S282.684 145.393 282.884 112.703C283.083 80.013 284.016 78.679 282.684 53.02Z" opacity="1" fill="#fa4238" data-fill-palette-color="tertiary"></path><g transform="matrix(1,0,0,1,55.76832,26.230666666666668)"><svg width="171.8504989088925" viewBox="3 -37.099998474121094 33.18030548095703 37.599998474121094" height="194.73866666666666" data-palette-color="#555252"><path d="M33-13.5L33-13.5Q32.25-8.25 30.05-5.18 27.85-2.1 24.38-0.8 20.9 0.5 16.4 0.5L16.4 0.5Q9.25 0.5 6.13-2.45 3-5.4 3-10.95L3-10.95Q3-11.9 3.08-12.88 3.15-13.85 3.3-14.9L3.3-14.9 6.35-36.35Q6.4-36.85 6.55-36.98 6.7-37.1 7.05-37.1L7.05-37.1 14.2-37.1Q14.65-37.1 14.88-36.75 15.1-36.4 15-36L15-36 11.85-13.3Q11.8-12.7 11.73-12.18 11.65-11.65 11.65-11.15L11.65-11.15Q11.65-8.25 13.13-7 14.6-5.75 17.3-5.75L17.3-5.75Q19.45-5.75 21.23-6.58 23-7.4 24.2-9.2 25.4-11 25.85-13.9L25.85-13.9 29-36.4Q29.1-36.85 29.23-36.98 29.35-37.1 29.7-37.1L29.7-37.1 35.4-37.1Q35.8-37.1 36.02-36.75 36.25-36.4 36.15-36L36.15-36 33-13.5Z" opacity="1" transform="matrix(1,0,0,1,0,0)" fill="#555252" class="wordmark-text-0" data-fill-palette-color="quaternary" id="text-0"></path></svg></g></svg></g></svg></g></svg></g><g></g></svg></g><defs></defs></svg><rect width="283.3871389088925" height="247.2" fill="none" stroke="none" visibility="hidden"></rect></g></svg></g></svg>